<?xml version="1.0"?>
<!-- Created by MetaPost 2.00 on 2022.02.20:2047 -->
<svg version="1.1" xmlns="http://www.w3.org/2000/svg" xmlns:xlink="http://www.w3.org/1999/xlink" width="243.426880" height="243.426880" viewBox="0 0 243.426880 243.426880">
<!-- Original BoundingBox: -2.713654 -2.713654 240.713226 240.713226 -->
  <path d="M69.999878 36.000366L103.999817 36.000366L103.999817 2.000427L69.999878 2.000427Z" style="stroke:rgb(60.000610%,60.000610%,60.000610%); stroke-width: 2.039993;fill: rgb(60.000610%,60.000610%,60.000610%);"></path>
  <path d="M137.999756 36.000366L171.999695 36.000366L171.999695 2.000427L137.999756 2.000427Z" style="stroke:rgb(60.000610%,60.000610%,60.000610%); stroke-width: 2.039993;fill: rgb(60.000610%,60.000610%,60.000610%);"></path>
  <path d="M171.999695 36.000366L205.999634 36.000366L205.999634 2.000427L171.999695 2.000427Z" style="stroke:rgb(60.000610%,60.000610%,60.000610%); stroke-width: 2.039993;fill: rgb(60.000610%,60.000610%,60.000610%);"></path>
  <path d="M205.999634 36.000366L239.999573 36.000366L239.999573 2.000427L205.999634 2.000427Z" style="stroke:rgb(60.000610%,60.000610%,60.000610%); stroke-width: 2.039993;fill: rgb(60.000610%,60.000610%,60.000610%);"></path>
  <path d="M35.999939 70.000305L69.999878 70.000305L69.999878 36.000366L35.999939 36.000366Z" style="stroke:rgb(60.000610%,60.000610%,60.000610%); stroke-width: 2.039993;fill: rgb(60.000610%,60.000610%,60.000610%);"></path>
  <path d="M103.999817 70.000305L137.999756 70.000305L137.999756 36.000366L103.999817 36.000366Z" style="stroke:rgb(60.000610%,60.000610%,60.000610%); stroke-width: 2.039993;fill: rgb(60.000610%,60.000610%,60.000610%);"></path>
  <path d="M35.999939 104.000244L69.999878 104.000244L69.999878 70.000305L35.999939 70.000305Z" style="stroke:rgb(60.000610%,60.000610%,60.000610%); stroke-width: 2.039993;fill: rgb(60.000610%,60.000610%,60.000610%);"></path>
  <path d="M35.999939 138.000183L69.999878 138.000183L69.999878 104.000244L35.999939 104.000244Z" style="stroke:rgb(60.000610%,60.000610%,60.000610%); stroke-width: 2.039993;fill: rgb(60.000610%,60.000610%,60.000610%);"></path>
  <path d="M35.999939 172.000122L69.999878 172.000122L69.999878 138.000183L35.999939 138.000183Z" style="stroke:rgb(60.000610%,60.000610%,60.000610%); stroke-width: 2.039993;fill: rgb(60.000610%,60.000610%,60.000610%);"></path>
  <path d="M137.999756 172.000122L171.999695 172.000122L171.999695 138.000183L137.999756 138.000183Z" style="stroke:rgb(60.000610%,60.000610%,60.000610%); stroke-width: 2.039993;fill: rgb(60.000610%,60.000610%,60.000610%);"></path>
  <path d="M205.999634 172.000122L239.999573 172.000122L239.999573 138.000183L205.999634 138.000183Z" style="stroke:rgb(60.000610%,60.000610%,60.000610%); stroke-width: 2.039993;fill: rgb(60.000610%,60.000610%,60.000610%);"></path>
  <path d="M35.999939 206.000061L69.999878 206.000061L69.999878 172.000122L35.999939 172.000122Z" style="stroke:rgb(60.000610%,60.000610%,60.000610%); stroke-width: 2.039993;fill: rgb(60.000610%,60.000610%,60.000610%);"></path>
  <path d="M137.999756 206.000061L171.999695 206.000061L171.999695 172.000122L137.999756 172.000122Z" style="stroke:rgb(60.000610%,60.000610%,60.000610%); stroke-width: 2.039993;fill: rgb(60.000610%,60.000610%,60.000610%);"></path>
  <path d="M171.999695 206.000061L205.999634 206.000061L205.999634 172.000122L171.999695 172.000122Z" style="stroke:rgb(60.000610%,60.000610%,60.000610%); stroke-width: 2.039993;fill: rgb(60.000610%,60.000610%,60.000610%);"></path>
  <path d="M69.999878 240.000000L103.999817 240.000000L103.999817 206.000061L69.999878 206.000061Z" style="stroke:rgb(60.000610%,60.000610%,60.000610%); stroke-width: 2.039993;fill: rgb(60.000610%,60.000610%,60.000610%);"></path>
  <path d="M103.999817 240.000000L137.999756 240.000000L137.999756 206.000061L103.999817 206.000061Z" style="stroke:rgb(60.000610%,60.000610%,60.000610%); stroke-width: 2.039993;fill: rgb(60.000610%,60.000610%,60.000610%);"></path>
  <path d="M137.999756 240.000000L171.999695 240.000000L171.999695 206.000061L137.999756 206.000061Z" style="stroke:rgb(60.000610%,60.000610%,60.000610%); stroke-width: 2.039993;fill: rgb(60.000610%,60.000610%,60.000610%);"></path>
  <path d="M2.000000 240.000000L2.000000 2.000427" style="stroke:rgb(0.000000%,0.000000%,0.000000%); stroke-width: 2.039993;stroke-linecap: round;stroke-linejoin: round;stroke-miterlimit: 10.000000;fill: none;"></path>
  <path d="M35.999939 240.000000L35.999939 2.000427" style="stroke:rgb(0.000000%,0.000000%,0.000000%); stroke-width: 2.039993;stroke-linecap: round;stroke-linejoin: round;stroke-miterlimit: 10.000000;fill: none;"></path>
  <path d="M69.999878 240.000000L69.999878 2.000427" style="stroke:rgb(0.000000%,0.000000%,0.000000%); stroke-width: 2.039993;stroke-linecap: round;stroke-linejoin: round;stroke-miterlimit: 10.000000;fill: none;"></path>
  <path d="M103.999817 240.000000L103.999817 2.000427" style="stroke:rgb(0.000000%,0.000000%,0.000000%); stroke-width: 2.039993;stroke-linecap: round;stroke-linejoin: round;stroke-miterlimit: 10.000000;fill: none;"></path>
  <path d="M137.999756 240.000000L137.999756 2.000427" style="stroke:rgb(0.000000%,0.000000%,0.000000%); stroke-width: 2.039993;stroke-linecap: round;stroke-linejoin: round;stroke-miterlimit: 10.000000;fill: none;"></path>
  <path d="M171.999695 240.000000L171.999695 2.000427" style="stroke:rgb(0.000000%,0.000000%,0.000000%); stroke-width: 2.039993;stroke-linecap: round;stroke-linejoin: round;stroke-miterlimit: 10.000000;fill: none;"></path>
  <path d="M205.999634 240.000000L205.999634 2.000427" style="stroke:rgb(0.000000%,0.000000%,0.000000%); stroke-width: 2.039993;stroke-linecap: round;stroke-linejoin: round;stroke-miterlimit: 10.000000;fill: none;"></path>
  <path d="M239.999573 240.000000L239.999573 2.000427" style="stroke:rgb(0.000000%,0.000000%,0.000000%); stroke-width: 2.039993;stroke-linecap: round;stroke-linejoin: round;stroke-miterlimit: 10.000000;fill: none;"></path>
  <path d="M2.000000 240.000000L239.999573 240.000000" style="stroke:rgb(0.000000%,0.000000%,0.000000%); stroke-width: 2.039993;stroke-linecap: round;stroke-linejoin: round;stroke-miterlimit: 10.000000;fill: none;"></path>
  <path d="M2.000000 206.000061L239.999573 206.000061" style="stroke:rgb(0.000000%,0.000000%,0.000000%); stroke-width: 2.039993;stroke-linecap: round;stroke-linejoin: round;stroke-miterlimit: 10.000000;fill: none;"></path>
  <path d="M2.000000 172.000122L239.999573 172.000122" style="stroke:rgb(0.000000%,0.000000%,0.000000%); stroke-width: 2.039993;stroke-linecap: round;stroke-linejoin: round;stroke-miterlimit: 10.000000;fill: none;"></path>
  <path d="M2.000000 138.000183L239.999573 138.000183" style="stroke:rgb(0.000000%,0.000000%,0.000000%); stroke-width: 2.039993;stroke-linecap: round;stroke-linejoin: round;stroke-miterlimit: 10.000000;fill: none;"></path>
  <path d="M2.000000 104.000244L239.999573 104.000244" style="stroke:rgb(0.000000%,0.000000%,0.000000%); stroke-width: 2.039993;stroke-linecap: round;stroke-linejoin: round;stroke-miterlimit: 10.000000;fill: none;"></path>
  <path d="M2.000000 70.000305L239.999573 70.000305" style="stroke:rgb(0.000000%,0.000000%,0.000000%); stroke-width: 2.039993;stroke-linecap: round;stroke-linejoin: round;stroke-miterlimit: 10.000000;fill: none;"></path>
  <path d="M2.000000 36.000366L239.999573 36.000366" style="stroke:rgb(0.000000%,0.000000%,0.000000%); stroke-width: 2.039993;stroke-linecap: round;stroke-linejoin: round;stroke-miterlimit: 10.000000;fill: none;"></path>
  <path d="M2.000000 2.000427L239.999573 2.000427" style="stroke:rgb(0.000000%,0.000000%,0.000000%); stroke-width: 2.039993;stroke-linecap: round;stroke-linejoin: round;stroke-miterlimit: 10.000000;fill: none;"></path>
</svg>
