<?xml version="1.0"?>
<!-- Created by MetaPost 2.00 on 2022.02.20:2047 -->
<svg version="1.1" xmlns="http://www.w3.org/2000/svg" xmlns:xlink="http://www.w3.org/1999/xlink" width="345.426697" height="338.507538" viewBox="0 0 345.426697 338.507538">
<!-- Original BoundingBox: -223.713257 -2.713654 121.713440 335.793884 -->
  <defs>
    <g transform="scale(0.011955,0.011955)" id="GLYPHec-lmr12_65">
      <path style="fill-rule: evenodd;" d="M702.000000 -0.000000L702.000000 -29.000000C637.000000 -29.000000,619.000000 -29.000000,605.000000 -70.000000L387.000000 -696.000000C383.000000 -708.000000,381.000000 -714.000000,367.000000 -714.000000C353.000000 -714.000000,351.000000 -711.000000,346.000000 -695.000000L137.000000 -97.000000C123.000000 -56.000000,95.000000 -30.000000,31.000000 -29.000000L31.000000 -0.000000L127.000000 -2.000000C155.000000 -2.000000,203.000000 -2.000000,229.000000 -0.000000L229.000000 -29.000000C187.000000 -30.000000,162.000000 -51.000000,162.000000 -79.000000C162.000000 -85.000000,162.000000 -87.000000,167.000000 -100.000000L213.000000 -233.000000L465.000000 -233.000000L520.000000 -76.000000C525.000000 -64.000000,525.000000 -62.000000,525.000000 -59.000000C525.000000 -29.000000,474.000000 -29.000000,449.000000 -29.000000L449.000000 -0.000000C472.000000 -2.000000,551.000000 -2.000000,579.000000 -2.000000C607.000000 -2.000000,679.000000 -2.000000,702.000000 -0.000000M455.000000 -262.000000L223.000000 -262.000000L339.000000 -595.000000"></path>
    </g>
    <g transform="scale(0.011955,0.011955)" id="GLYPHec-lmr12_66">
      <path style="fill-rule: evenodd;" d="M638.000000 -183.000000C638.000000 -264.000000,565.000000 -344.000000,446.000000 -357.000000C541.000000 -375.000000,610.000000 -439.000000,610.000000 -514.000000C610.000000 -600.000000,523.000000 -683.000000,392.000000 -683.000000L43.000000 -683.000000L43.000000 -654.000000L63.000000 -654.000000C135.000000 -654.000000,138.000000 -644.000000,138.000000 -607.000000L138.000000 -76.000000C138.000000 -39.000000,135.000000 -29.000000,63.000000 -29.000000L43.000000 -29.000000L43.000000 -0.000000L419.000000 -0.000000C548.000000 -0.000000,638.000000 -87.000000,638.000000 -183.000000M522.000000 -514.000000C522.000000 -448.000000,470.000000 -365.000000,359.000000 -365.000000L214.000000 -365.000000L214.000000 -614.000000C214.000000 -647.000000,216.000000 -654.000000,260.000000 -654.000000L386.000000 -654.000000C486.000000 -654.000000,522.000000 -568.000000,522.000000 -514.000000M547.000000 -184.000000C547.000000 -103.000000,486.000000 -29.000000,388.000000 -29.000000L260.000000 -29.000000C216.000000 -29.000000,214.000000 -36.000000,214.000000 -69.000000L214.000000 -345.000000L401.000000 -345.000000C497.000000 -345.000000,547.000000 -261.000000,547.000000 -184.000000"></path>
    </g>
    <g transform="scale(0.011955,0.011955)" id="GLYPHec-lmr12_67">
      <path style="fill-rule: evenodd;" d="M652.000000 -232.000000C652.000000 -243.000000,652.000000 -249.000000,641.000000 -249.000000C631.000000 -249.000000,630.000000 -244.000000,630.000000 -237.000000C621.000000 -78.000000,505.000000 -8.000000,408.000000 -8.000000C338.000000 -8.000000,147.000000 -50.000000,147.000000 -342.000000C147.000000 -631.000000,335.000000 -675.000000,407.000000 -675.000000C512.000000 -675.000000,604.000000 -586.000000,624.000000 -436.000000C626.000000 -424.000000,626.000000 -421.000000,638.000000 -421.000000C652.000000 -421.000000,652.000000 -424.000000,652.000000 -444.000000L652.000000 -681.000000C652.000000 -699.000000,652.000000 -704.000000,642.000000 -704.000000C636.000000 -704.000000,635.000000 -702.000000,629.000000 -692.000000L580.000000 -613.000000C535.000000 -669.000000,467.000000 -704.000000,395.000000 -704.000000C212.000000 -704.000000,54.000000 -546.000000,54.000000 -342.000000C54.000000 -135.000000,214.000000 21.000000,395.000000 21.000000C559.000000 21.000000,652.000000 -122.000000,652.000000 -232.000000"></path>
    </g>
    <g transform="scale(0.011955,0.011955)" id="GLYPHec-lmr12_68">
      <path style="fill-rule: evenodd;" d="M693.000000 -335.000000C693.000000 -528.000000,558.000000 -683.000000,392.000000 -683.000000L42.000000 -683.000000L42.000000 -654.000000L62.000000 -654.000000C134.000000 -654.000000,137.000000 -644.000000,137.000000 -607.000000L137.000000 -76.000000C137.000000 -39.000000,134.000000 -29.000000,62.000000 -29.000000L42.000000 -29.000000L42.000000 -0.000000L392.000000 -0.000000C559.000000 -0.000000,693.000000 -150.000000,693.000000 -335.000000M602.000000 -336.000000C602.000000 -280.000000,601.000000 -186.000000,544.000000 -112.000000C511.000000 -70.000000,451.000000 -29.000000,367.000000 -29.000000L262.000000 -29.000000C218.000000 -29.000000,216.000000 -36.000000,216.000000 -69.000000L216.000000 -614.000000C216.000000 -647.000000,218.000000 -654.000000,262.000000 -654.000000L367.000000 -654.000000C450.000000 -654.000000,516.000000 -614.000000,557.000000 -548.000000C602.000000 -477.000000,602.000000 -376.000000,602.000000 -336.000000"></path>
    </g>
  </defs>
  <g transform="matrix(2.379990,-0.000000,-0.000000,2.379990,59.557968 20.500351)" style="fill: rgb(0.000000%,0.000000%,0.000000%);">
    <use xlink:href="#GLYPHec-lmr12_65"></use>
  </g>
  <path d="M70.000275 97.000427L104.000214 97.000427L104.000214 63.000488L70.000275 63.000488Z" style="stroke:rgb(60.000610%,60.000610%,60.000610%); stroke-width: 2.039993;fill: rgb(60.000610%,60.000610%,60.000610%);"></path>
  <path d="M36.000336 63.000488L70.000275 63.000488L70.000275 29.000549L36.000336 29.000549Z" style="stroke:rgb(60.000610%,60.000610%,60.000610%); stroke-width: 2.039993;fill: rgb(60.000610%,60.000610%,60.000610%);"></path>
  <path d="M2.000397 131.000366L2.000397 29.000549" style="stroke:rgb(0.000000%,0.000000%,0.000000%); stroke-width: 2.039993;stroke-linecap: round;stroke-linejoin: round;stroke-miterlimit: 10.000000;fill: none;"></path>
  <path d="M36.000336 131.000366L36.000336 29.000549" style="stroke:rgb(0.000000%,0.000000%,0.000000%); stroke-width: 2.039993;stroke-linecap: round;stroke-linejoin: round;stroke-miterlimit: 10.000000;fill: none;"></path>
  <path d="M70.000275 131.000366L70.000275 29.000549" style="stroke:rgb(0.000000%,0.000000%,0.000000%); stroke-width: 2.039993;stroke-linecap: round;stroke-linejoin: round;stroke-miterlimit: 10.000000;fill: none;"></path>
  <path d="M104.000214 131.000366L104.000214 29.000549" style="stroke:rgb(0.000000%,0.000000%,0.000000%); stroke-width: 2.039993;stroke-linecap: round;stroke-linejoin: round;stroke-miterlimit: 10.000000;fill: none;"></path>
  <path d="M138.000153 131.000366L138.000153 29.000549" style="stroke:rgb(0.000000%,0.000000%,0.000000%); stroke-width: 2.039993;stroke-linecap: round;stroke-linejoin: round;stroke-miterlimit: 10.000000;fill: none;"></path>
  <path d="M2.000397 131.000366L138.000153 131.000366" style="stroke:rgb(0.000000%,0.000000%,0.000000%); stroke-width: 2.039993;stroke-linecap: round;stroke-linejoin: round;stroke-miterlimit: 10.000000;fill: none;"></path>
  <path d="M2.000397 97.000427L138.000153 97.000427" style="stroke:rgb(0.000000%,0.000000%,0.000000%); stroke-width: 2.039993;stroke-linecap: round;stroke-linejoin: round;stroke-miterlimit: 10.000000;fill: none;"></path>
  <path d="M2.000397 63.000488L138.000153 63.000488" style="stroke:rgb(0.000000%,0.000000%,0.000000%); stroke-width: 2.039993;stroke-linecap: round;stroke-linejoin: round;stroke-miterlimit: 10.000000;fill: none;"></path>
  <path d="M2.000397 29.000549L138.000153 29.000549" style="stroke:rgb(0.000000%,0.000000%,0.000000%); stroke-width: 2.039993;stroke-linecap: round;stroke-linejoin: round;stroke-miterlimit: 10.000000;fill: none;"></path>
  <g transform="matrix(2.379990,-0.000000,-0.000000,2.379990,264.134995 20.500351)" style="fill: rgb(0.000000%,0.000000%,0.000000%);">
    <use xlink:href="#GLYPHec-lmr12_66"></use>
  </g>
  <path d="M239.999969 131.000366L273.999908 131.000366L273.999908 97.000427L239.999969 97.000427Z" style="stroke:rgb(60.000610%,60.000610%,60.000610%); stroke-width: 2.039993;fill: rgb(60.000610%,60.000610%,60.000610%);"></path>
  <path d="M206.000031 97.000427L239.999969 97.000427L239.999969 63.000488L206.000031 63.000488Z" style="stroke:rgb(60.000610%,60.000610%,60.000610%); stroke-width: 2.039993;fill: rgb(60.000610%,60.000610%,60.000610%);"></path>
  <path d="M206.000031 131.000366L206.000031 29.000549" style="stroke:rgb(0.000000%,0.000000%,0.000000%); stroke-width: 2.039993;stroke-linecap: round;stroke-linejoin: round;stroke-miterlimit: 10.000000;fill: none;"></path>
  <path d="M239.999969 131.000366L239.999969 29.000549" style="stroke:rgb(0.000000%,0.000000%,0.000000%); stroke-width: 2.039993;stroke-linecap: round;stroke-linejoin: round;stroke-miterlimit: 10.000000;fill: none;"></path>
  <path d="M273.999908 131.000366L273.999908 29.000549" style="stroke:rgb(0.000000%,0.000000%,0.000000%); stroke-width: 2.039993;stroke-linecap: round;stroke-linejoin: round;stroke-miterlimit: 10.000000;fill: none;"></path>
  <path d="M307.999847 131.000366L307.999847 29.000549" style="stroke:rgb(0.000000%,0.000000%,0.000000%); stroke-width: 2.039993;stroke-linecap: round;stroke-linejoin: round;stroke-miterlimit: 10.000000;fill: none;"></path>
  <path d="M341.999786 131.000366L341.999786 29.000549" style="stroke:rgb(0.000000%,0.000000%,0.000000%); stroke-width: 2.039993;stroke-linecap: round;stroke-linejoin: round;stroke-miterlimit: 10.000000;fill: none;"></path>
  <path d="M206.000031 131.000366L341.999786 131.000366" style="stroke:rgb(0.000000%,0.000000%,0.000000%); stroke-width: 2.039993;stroke-linecap: round;stroke-linejoin: round;stroke-miterlimit: 10.000000;fill: none;"></path>
  <path d="M206.000031 97.000427L341.999786 97.000427" style="stroke:rgb(0.000000%,0.000000%,0.000000%); stroke-width: 2.039993;stroke-linecap: round;stroke-linejoin: round;stroke-miterlimit: 10.000000;fill: none;"></path>
  <path d="M206.000031 63.000488L341.999786 63.000488" style="stroke:rgb(0.000000%,0.000000%,0.000000%); stroke-width: 2.039993;stroke-linecap: round;stroke-linejoin: round;stroke-miterlimit: 10.000000;fill: none;"></path>
  <path d="M206.000031 29.000549L341.999786 29.000549" style="stroke:rgb(0.000000%,0.000000%,0.000000%); stroke-width: 2.039993;stroke-linecap: round;stroke-linejoin: round;stroke-miterlimit: 10.000000;fill: none;"></path>
  <g transform="matrix(2.379990,-0.000000,-0.000000,2.379990,59.939713 190.500046)" style="fill: rgb(0.000000%,0.000000%,0.000000%);">
    <use xlink:href="#GLYPHec-lmr12_67"></use>
  </g>
  <path d="M87.000244 267.000122L121.000183 267.000122L121.000183 233.000183L87.000244 233.000183Z" style="stroke:rgb(60.000610%,60.000610%,60.000610%); stroke-width: 2.039993;fill: rgb(60.000610%,60.000610%,60.000610%);"></path>
  <path d="M53.000305 233.000183L87.000244 233.000183L87.000244 199.000244L53.000305 199.000244Z" style="stroke:rgb(60.000610%,60.000610%,60.000610%); stroke-width: 2.039993;fill: rgb(60.000610%,60.000610%,60.000610%);"></path>
  <path d="M19.000366 335.000000L19.000366 199.000244" style="stroke:rgb(0.000000%,0.000000%,0.000000%); stroke-width: 2.039993;stroke-linecap: round;stroke-linejoin: round;stroke-miterlimit: 10.000000;fill: none;"></path>
  <path d="M53.000305 335.000000L53.000305 199.000244" style="stroke:rgb(0.000000%,0.000000%,0.000000%); stroke-width: 2.039993;stroke-linecap: round;stroke-linejoin: round;stroke-miterlimit: 10.000000;fill: none;"></path>
  <path d="M87.000244 335.000000L87.000244 199.000244" style="stroke:rgb(0.000000%,0.000000%,0.000000%); stroke-width: 2.039993;stroke-linecap: round;stroke-linejoin: round;stroke-miterlimit: 10.000000;fill: none;"></path>
  <path d="M121.000183 335.000000L121.000183 199.000244" style="stroke:rgb(0.000000%,0.000000%,0.000000%); stroke-width: 2.039993;stroke-linecap: round;stroke-linejoin: round;stroke-miterlimit: 10.000000;fill: none;"></path>
  <path d="M19.000366 335.000000L121.000183 335.000000" style="stroke:rgb(0.000000%,0.000000%,0.000000%); stroke-width: 2.039993;stroke-linecap: round;stroke-linejoin: round;stroke-miterlimit: 10.000000;fill: none;"></path>
  <path d="M19.000366 301.000061L121.000183 301.000061" style="stroke:rgb(0.000000%,0.000000%,0.000000%); stroke-width: 2.039993;stroke-linecap: round;stroke-linejoin: round;stroke-miterlimit: 10.000000;fill: none;"></path>
  <path d="M19.000366 267.000122L121.000183 267.000122" style="stroke:rgb(0.000000%,0.000000%,0.000000%); stroke-width: 2.039993;stroke-linecap: round;stroke-linejoin: round;stroke-miterlimit: 10.000000;fill: none;"></path>
  <path d="M19.000366 233.000183L121.000183 233.000183" style="stroke:rgb(0.000000%,0.000000%,0.000000%); stroke-width: 2.039993;stroke-linecap: round;stroke-linejoin: round;stroke-miterlimit: 10.000000;fill: none;"></path>
  <path d="M19.000366 199.000244L121.000183 199.000244" style="stroke:rgb(0.000000%,0.000000%,0.000000%); stroke-width: 2.039993;stroke-linecap: round;stroke-linejoin: round;stroke-miterlimit: 10.000000;fill: none;"></path>
  <g transform="matrix(2.379990,-0.000000,-0.000000,2.379990,263.360764 190.500046)" style="fill: rgb(0.000000%,0.000000%,0.000000%);">
    <use xlink:href="#GLYPHec-lmr12_68"></use>
  </g>
  <path d="M256.999939 301.000061L290.999878 301.000061L290.999878 267.000122L256.999939 267.000122Z" style="stroke:rgb(60.000610%,60.000610%,60.000610%); stroke-width: 2.039993;fill: rgb(60.000610%,60.000610%,60.000610%);"></path>
  <path d="M223.000000 267.000122L256.999939 267.000122L256.999939 233.000183L223.000000 233.000183Z" style="stroke:rgb(60.000610%,60.000610%,60.000610%); stroke-width: 2.039993;fill: rgb(60.000610%,60.000610%,60.000610%);"></path>
  <path d="M223.000000 335.000000L223.000000 199.000244" style="stroke:rgb(0.000000%,0.000000%,0.000000%); stroke-width: 2.039993;stroke-linecap: round;stroke-linejoin: round;stroke-miterlimit: 10.000000;fill: none;"></path>
  <path d="M256.999939 335.000000L256.999939 199.000244" style="stroke:rgb(0.000000%,0.000000%,0.000000%); stroke-width: 2.039993;stroke-linecap: round;stroke-linejoin: round;stroke-miterlimit: 10.000000;fill: none;"></path>
  <path d="M290.999878 335.000000L290.999878 199.000244" style="stroke:rgb(0.000000%,0.000000%,0.000000%); stroke-width: 2.039993;stroke-linecap: round;stroke-linejoin: round;stroke-miterlimit: 10.000000;fill: none;"></path>
  <path d="M324.999817 335.000000L324.999817 199.000244" style="stroke:rgb(0.000000%,0.000000%,0.000000%); stroke-width: 2.039993;stroke-linecap: round;stroke-linejoin: round;stroke-miterlimit: 10.000000;fill: none;"></path>
  <path d="M223.000000 335.000000L324.999817 335.000000" style="stroke:rgb(0.000000%,0.000000%,0.000000%); stroke-width: 2.039993;stroke-linecap: round;stroke-linejoin: round;stroke-miterlimit: 10.000000;fill: none;"></path>
  <path d="M223.000000 301.000061L324.999817 301.000061" style="stroke:rgb(0.000000%,0.000000%,0.000000%); stroke-width: 2.039993;stroke-linecap: round;stroke-linejoin: round;stroke-miterlimit: 10.000000;fill: none;"></path>
  <path d="M223.000000 267.000122L324.999817 267.000122" style="stroke:rgb(0.000000%,0.000000%,0.000000%); stroke-width: 2.039993;stroke-linecap: round;stroke-linejoin: round;stroke-miterlimit: 10.000000;fill: none;"></path>
  <path d="M223.000000 233.000183L324.999817 233.000183" style="stroke:rgb(0.000000%,0.000000%,0.000000%); stroke-width: 2.039993;stroke-linecap: round;stroke-linejoin: round;stroke-miterlimit: 10.000000;fill: none;"></path>
  <path d="M223.000000 199.000244L324.999817 199.000244" style="stroke:rgb(0.000000%,0.000000%,0.000000%); stroke-width: 2.039993;stroke-linecap: round;stroke-linejoin: round;stroke-miterlimit: 10.000000;fill: none;"></path>
</svg>
